<mxfile host="app.diagrams.net" agent="Mozilla/5.0 (X11; Ubuntu; Linux x86_64; rv:133.0) Gecko/20100101 Firefox/133.0" version="25.0.3">
  <diagram name="Page-1" id="VDJs0PAIQ_YoyMKNlJH6">
    <mxGraphModel dx="1114" dy="642" grid="1" gridSize="10" guides="1" tooltips="1" connect="1" arrows="1" fold="1" page="1" pageScale="1" pageWidth="850" pageHeight="1100" background="none" math="0" shadow="0">
      <root>
        <mxCell id="0" />
        <mxCell id="1" parent="0" />
        <UserObject label="&lt;div align=&quot;left&quot;&gt;CNAME:&lt;span style=&quot;white-space: pre;&quot;&gt;&#x9;&lt;/span&gt;www.foobar.com&lt;span style=&quot;white-space: pre;&quot;&gt;&#x9;&lt;/span&gt;foobar.com&lt;/div&gt;&lt;div align=&quot;left&quot;&gt;A:&lt;span style=&quot;white-space: pre;&quot;&gt;&#x9;&lt;/span&gt;&lt;span style=&quot;white-space: pre;&quot;&gt;&#x9;&lt;/span&gt;foobar.com&lt;span style=&quot;white-space: pre;&quot;&gt;&#x9;&lt;span style=&quot;white-space: pre;&quot;&gt;&#x9;&lt;/span&gt;&lt;/span&gt;8.8.8.8&lt;br&gt;&lt;/div&gt;" treeRoot="1" id="dG9p99vSCrw2FUkWGB2x-3">
          <mxCell style="whiteSpace=wrap;html=1;align=left;treeFolding=1;treeMoving=1;newEdgeStyle={&quot;edgeStyle&quot;:&quot;elbowEdgeStyle&quot;,&quot;startArrow&quot;:&quot;none&quot;,&quot;endArrow&quot;:&quot;none&quot;};" vertex="1" parent="1">
            <mxGeometry x="561" y="15" width="250" height="60" as="geometry" />
          </mxCell>
        </UserObject>
        <mxCell id="dG9p99vSCrw2FUkWGB2x-9" value="Server" style="swimlane;" vertex="1" parent="1">
          <mxGeometry x="614" y="95" width="190" height="270" as="geometry" />
        </mxCell>
        <mxCell id="dG9p99vSCrw2FUkWGB2x-11" value="Web server (Nginx)" style="whiteSpace=wrap;html=1;shape=mxgraph.basic.cloud_rect" vertex="1" parent="dG9p99vSCrw2FUkWGB2x-9">
          <mxGeometry x="-50" y="80" width="70" height="110" as="geometry" />
        </mxCell>
        <mxCell id="dG9p99vSCrw2FUkWGB2x-1" value="&lt;div&gt;Codebase&lt;/div&gt;&lt;div&gt;&lt;br&gt;&lt;/div&gt;&lt;div&gt;&lt;br&gt;&lt;/div&gt;" style="shape=datastore;whiteSpace=wrap;html=1;" vertex="1" parent="dG9p99vSCrw2FUkWGB2x-9">
          <mxGeometry x="90" y="30" width="70" height="110" as="geometry" />
        </mxCell>
        <mxCell id="dG9p99vSCrw2FUkWGB2x-14" style="edgeStyle=orthogonalEdgeStyle;rounded=0;orthogonalLoop=1;jettySize=auto;html=1;entryX=0;entryY=0.5;entryDx=0;entryDy=0;" edge="1" parent="dG9p99vSCrw2FUkWGB2x-9" source="dG9p99vSCrw2FUkWGB2x-11" target="dG9p99vSCrw2FUkWGB2x-1">
          <mxGeometry relative="1" as="geometry" />
        </mxCell>
        <mxCell id="dG9p99vSCrw2FUkWGB2x-16" style="edgeStyle=orthogonalEdgeStyle;rounded=0;orthogonalLoop=1;jettySize=auto;html=1;entryX=0.971;entryY=0.491;entryDx=0;entryDy=0;entryPerimeter=0;" edge="1" parent="dG9p99vSCrw2FUkWGB2x-9" source="dG9p99vSCrw2FUkWGB2x-1" target="dG9p99vSCrw2FUkWGB2x-11">
          <mxGeometry relative="1" as="geometry" />
        </mxCell>
        <mxCell id="dG9p99vSCrw2FUkWGB2x-2" value="&lt;div&gt;MySQL&lt;/div&gt;" style="strokeWidth=2;html=1;shape=mxgraph.flowchart.database;whiteSpace=wrap;" vertex="1" parent="dG9p99vSCrw2FUkWGB2x-9">
          <mxGeometry x="90" y="190" width="70" height="60" as="geometry" />
        </mxCell>
        <mxCell id="dG9p99vSCrw2FUkWGB2x-5" style="edgeStyle=orthogonalEdgeStyle;rounded=0;orthogonalLoop=1;jettySize=auto;html=1;" edge="1" parent="dG9p99vSCrw2FUkWGB2x-9" source="dG9p99vSCrw2FUkWGB2x-1" target="dG9p99vSCrw2FUkWGB2x-2">
          <mxGeometry relative="1" as="geometry" />
        </mxCell>
        <mxCell id="dG9p99vSCrw2FUkWGB2x-6" style="edgeStyle=orthogonalEdgeStyle;rounded=0;orthogonalLoop=1;jettySize=auto;html=1;entryX=0.5;entryY=1;entryDx=0;entryDy=0;" edge="1" parent="dG9p99vSCrw2FUkWGB2x-9" source="dG9p99vSCrw2FUkWGB2x-2" target="dG9p99vSCrw2FUkWGB2x-1">
          <mxGeometry relative="1" as="geometry" />
        </mxCell>
        <mxCell id="dG9p99vSCrw2FUkWGB2x-15" style="edgeStyle=orthogonalEdgeStyle;rounded=0;orthogonalLoop=1;jettySize=auto;html=1;entryX=0;entryY=0.5;entryDx=0;entryDy=0;entryPerimeter=0;" edge="1" parent="dG9p99vSCrw2FUkWGB2x-9" source="dG9p99vSCrw2FUkWGB2x-11" target="dG9p99vSCrw2FUkWGB2x-2">
          <mxGeometry relative="1" as="geometry" />
        </mxCell>
        <mxCell id="dG9p99vSCrw2FUkWGB2x-17" style="edgeStyle=orthogonalEdgeStyle;rounded=0;orthogonalLoop=1;jettySize=auto;html=1;" edge="1" parent="dG9p99vSCrw2FUkWGB2x-9" source="dG9p99vSCrw2FUkWGB2x-2" target="dG9p99vSCrw2FUkWGB2x-11">
          <mxGeometry relative="1" as="geometry" />
        </mxCell>
        <mxCell id="dG9p99vSCrw2FUkWGB2x-19" value="Application Server" style="rounded=1;whiteSpace=wrap;html=1;" vertex="1" parent="dG9p99vSCrw2FUkWGB2x-9">
          <mxGeometry x="92" y="100" width="65" height="30" as="geometry" />
        </mxCell>
        <mxCell id="dG9p99vSCrw2FUkWGB2x-22" value="Simple Web Stack" style="text;html=1;align=center;verticalAlign=middle;whiteSpace=wrap;rounded=0;" vertex="1" parent="1">
          <mxGeometry x="629" y="380" width="160" height="30" as="geometry" />
        </mxCell>
        <mxCell id="dG9p99vSCrw2FUkWGB2x-23" value="Distributed Web Infrastructure" style="text;html=1;align=center;verticalAlign=middle;whiteSpace=wrap;rounded=0;" vertex="1" parent="1">
          <mxGeometry x="70" y="480" width="220" height="30" as="geometry" />
        </mxCell>
        <mxCell id="dG9p99vSCrw2FUkWGB2x-25" value="Server 1" style="swimlane;startSize=23;" vertex="1" parent="1">
          <mxGeometry x="290" y="40" width="210" height="170" as="geometry" />
        </mxCell>
        <mxCell id="dG9p99vSCrw2FUkWGB2x-36" value="" style="group" vertex="1" connectable="0" parent="dG9p99vSCrw2FUkWGB2x-25">
          <mxGeometry x="20" y="35" width="70" height="110" as="geometry" />
        </mxCell>
        <mxCell id="dG9p99vSCrw2FUkWGB2x-27" value="&lt;div&gt;Codebase&lt;/div&gt;&lt;div&gt;&lt;br&gt;&lt;/div&gt;&lt;div&gt;&lt;br&gt;&lt;/div&gt;" style="shape=datastore;whiteSpace=wrap;html=1;" vertex="1" parent="dG9p99vSCrw2FUkWGB2x-36">
          <mxGeometry width="70" height="110" as="geometry" />
        </mxCell>
        <mxCell id="dG9p99vSCrw2FUkWGB2x-35" value="Application Server" style="rounded=1;whiteSpace=wrap;html=1;" vertex="1" parent="dG9p99vSCrw2FUkWGB2x-36">
          <mxGeometry x="2" y="70" width="65" height="30" as="geometry" />
        </mxCell>
        <mxCell id="dG9p99vSCrw2FUkWGB2x-30" value="&lt;div&gt;MySQL&lt;/div&gt;" style="strokeWidth=2;html=1;shape=mxgraph.flowchart.database;whiteSpace=wrap;" vertex="1" parent="dG9p99vSCrw2FUkWGB2x-25">
          <mxGeometry x="130" y="50" width="70" height="80" as="geometry" />
        </mxCell>
        <mxCell id="dG9p99vSCrw2FUkWGB2x-50" style="edgeStyle=orthogonalEdgeStyle;rounded=0;orthogonalLoop=1;jettySize=auto;html=1;" edge="1" parent="1" source="dG9p99vSCrw2FUkWGB2x-26" target="dG9p99vSCrw2FUkWGB2x-40">
          <mxGeometry relative="1" as="geometry" />
        </mxCell>
        <mxCell id="dG9p99vSCrw2FUkWGB2x-26" value="Web server (Nginx)" style="whiteSpace=wrap;html=1;shape=mxgraph.basic.cloud_rect" vertex="1" parent="1">
          <mxGeometry x="70" y="175" width="70" height="110" as="geometry" />
        </mxCell>
        <mxCell id="dG9p99vSCrw2FUkWGB2x-46" style="edgeStyle=orthogonalEdgeStyle;rounded=0;orthogonalLoop=1;jettySize=auto;html=1;entryX=0;entryY=0.5;entryDx=0;entryDy=0;" edge="1" parent="1" source="dG9p99vSCrw2FUkWGB2x-40" target="dG9p99vSCrw2FUkWGB2x-25">
          <mxGeometry relative="1" as="geometry" />
        </mxCell>
        <mxCell id="dG9p99vSCrw2FUkWGB2x-49" style="edgeStyle=orthogonalEdgeStyle;rounded=0;orthogonalLoop=1;jettySize=auto;html=1;entryX=0;entryY=0.5;entryDx=0;entryDy=0;" edge="1" parent="1" source="dG9p99vSCrw2FUkWGB2x-40" target="dG9p99vSCrw2FUkWGB2x-41">
          <mxGeometry relative="1" as="geometry" />
        </mxCell>
        <mxCell id="dG9p99vSCrw2FUkWGB2x-40" value="Load Balancer (HAproxy)" style="rounded=1;whiteSpace=wrap;html=1;absoluteArcSize=1;arcSize=14;strokeWidth=2;" vertex="1" parent="1">
          <mxGeometry x="180" y="180" width="60" height="100" as="geometry" />
        </mxCell>
        <mxCell id="dG9p99vSCrw2FUkWGB2x-41" value="Server 1" style="swimlane;startSize=23;" vertex="1" parent="1">
          <mxGeometry x="290" y="260" width="210" height="170" as="geometry" />
        </mxCell>
        <mxCell id="dG9p99vSCrw2FUkWGB2x-42" value="" style="group" vertex="1" connectable="0" parent="dG9p99vSCrw2FUkWGB2x-41">
          <mxGeometry x="20" y="35" width="70" height="110" as="geometry" />
        </mxCell>
        <mxCell id="dG9p99vSCrw2FUkWGB2x-43" value="&lt;div&gt;Codebase&lt;/div&gt;&lt;div&gt;&lt;br&gt;&lt;/div&gt;&lt;div&gt;&lt;br&gt;&lt;/div&gt;" style="shape=datastore;whiteSpace=wrap;html=1;" vertex="1" parent="dG9p99vSCrw2FUkWGB2x-42">
          <mxGeometry width="70" height="110" as="geometry" />
        </mxCell>
        <mxCell id="dG9p99vSCrw2FUkWGB2x-44" value="Application Server" style="rounded=1;whiteSpace=wrap;html=1;" vertex="1" parent="dG9p99vSCrw2FUkWGB2x-42">
          <mxGeometry x="2" y="70" width="65" height="30" as="geometry" />
        </mxCell>
        <mxCell id="dG9p99vSCrw2FUkWGB2x-45" value="&lt;div&gt;MySQL&lt;/div&gt;" style="strokeWidth=2;html=1;shape=mxgraph.flowchart.database;whiteSpace=wrap;" vertex="1" parent="dG9p99vSCrw2FUkWGB2x-41">
          <mxGeometry x="130" y="50" width="70" height="80" as="geometry" />
        </mxCell>
      </root>
    </mxGraphModel>
  </diagram>
</mxfile>
